<svg xmlns="http://www.w3.org/2000/svg" version="1.0" width="553.000000pt" height="558.000000pt" viewBox="0 0 553.000000 558.000000" preserveAspectRatio="xMidYMid meet">

<g transform="translate(0.000000,558.000000) scale(0.100000,-0.100000)" fill="#000000" stroke="none">
<path d="M1135 5530 c-179 -25 -325 -71 -485 -156 -261 -139 -471 -395 -568 -694 -66 -202 -63 -96 -59 -1920 2 -1550 4 -1659 20 -1715 70 -236 131 -365 242 -514 196 -261 439 -411 782 -481 101 -20 124 -20 1705 -21 l1603 -1 120 27 c190 43 291 86 453 195 209 140 381 370 485 650 71 190 67 82 67 1897 0 1614 0 1636 -21 1736 -51 254 -203 522 -384 681 -159 140 -343 237 -556 293 l-104 28 -1620 1 c-891 1 -1647 -2 -1680 -6z m2033 -938 c276 -62 463 -161 621 -328 178 -188 273 -393 303 -658 12 -108 1 -256 -28 -371 -34 -133 -118 -287 -210 -385 l-45 -49 79 -76 c135 -128 222 -278 275 -470 18 -68 21 -105 21 -250 -1 -150 -4 -182 -27 -267 -30 -113 -105 -266 -179 -365 -137 -182 -351 -337 -555 -401 -183 -58 -137 -56 -1068 -59 l-860 -4 -44 23 c-25 13 -54 36 -65 51 -21 28 -21 30 -24 1775 -2 1294 1 1754 9 1775 14 33 59 67 103 78 17 4 384 6 816 5 755 -3 789 -3 878 -24z"/>
<path d="M1990 3525 l0 -496 548 3 c536 4 548 4 607 26 76 28 147 81 207 157 114 140 134 336 53 500 -65 134 -165 221 -311 272 l-79 27 -512 4 -513 4 0 -497z"/>
<path d="M2518 2462 l-528 -2 0 -486 0 -487 548 6 c598 5 602 6 729 67 143 70 267 251 280 410 21 248 -169 469 -418 489 -46 3 -321 5 -611 3z"/>
</g>
</svg>